<?xml version="1.0" encoding="utf-8"?>
<!-- Generator: Adobe Illustrator 18.1.0, SVG Export Plug-In . SVG Version: 6.00 Build 0)  -->
<svg version="1.1" id="Layer_1" xmlns="http://www.w3.org/2000/svg" xmlns:xlink="http://www.w3.org/1999/xlink" x="0px" y="0px"
	 viewBox="0 0 500 500" enable-background="new 0 0 500 500" xml:space="preserve">
<g>
	<path fill="#010101" d="M466.7,459.1L332.5,210.8c-4.6-8.6-8.6-24.6-8.6-34.3V37.7h35.4V0H140.6v37.7h35.4v138.9
		c0,9.7-4.1,25.7-8.6,34.3L33.3,459.2c-5.2,9.6-5.4,19.9-0.6,28S46.6,500,57.6,500h384.7c11,0,20.1-4.7,24.9-12.8
		C472.2,479.1,471.9,468.9,466.7,459.1z M193.2,224.7c6.8-12.7,12.2-33.7,12.2-48.1V37.7h89.4v138.9c0,14.4,5.3,35.4,12.2,48.1
		l31.9,59.1H190.9L91.8,467H62.9c0.3-1.1,0.6-2.2,1.1-3.2l58.9-109l38.4-71h-0.1L193.2,224.7z"/>
	<path fill="#010101" d="M242.5,174.9c15.6,0,28.4-12.7,28.4-28.4c0-15.6-12.7-28.4-28.4-28.4c-15.6,0-28.4,12.7-28.4,28.4
		C214.3,162.3,227,174.9,242.5,174.9z M242.5,127c10.8,0,19.6,8.7,19.6,19.6c0,10.8-8.7,19.6-19.6,19.6c-10.8,0-19.6-8.7-19.6-19.6
		C222.9,135.8,231.8,127,242.5,127z"/>
	<path fill="#010101" d="M262.2,250.1c0,12,9.7,21.8,21.8,21.8c12,0,21.8-9.7,21.8-21.8c0-12-9.7-21.8-21.8-21.8
		C271.9,228.4,262.2,238.1,262.2,250.1z M283.9,237.1c7.2,0,13,5.8,13,13s-5.8,13-13,13c-7.2,0-13-5.8-13-13
		C270.9,242.9,276.7,237.1,283.9,237.1z"/>
</g>
</svg>
